<?xml version="1.0" encoding="utf-8"?>
<!-- Generator: Adobe Illustrator 28.0.0, SVG Export Plug-In . SVG Version: 6.00 Build 0)  -->
<svg version="1.1" id="uuid-bbebf7ac-ca18-415d-b1af-fc42246d4d1d"
	 xmlns="http://www.w3.org/2000/svg" xmlns:xlink="http://www.w3.org/1999/xlink" x="0px" y="0px" viewBox="0 0 1080 1080"
	 style="enable-background:new 0 0 1080 1080;" xml:space="preserve">
<style type="text/css">
	.st0{fill:#981E21;stroke:#981E21;stroke-width:9;stroke-miterlimit:10;}
	.st1{fill:#FFFFFF;}
</style>
<rect class="st0" width="1080" height="1080"/>
<path class="st1" d="M608.9,271.4h-19.7l-13.7,85.8h12.4l2.3-15.5h16.6l2.3,15.5h13.6L608.9,271.4L608.9,271.4z M591.8,330l6.4-43.4
	h0.3l6.4,43.4L591.8,330L591.8,330z"/>
<path class="st1" d="M491.8,448.8h-19.7l-13.7,85.8h12.4L473,519h16.5l2.3,15.6h13.6L491.8,448.8L491.8,448.8z M474.8,507.4
	l6.4-43.4h0.2l6.4,43.4L474.8,507.4L474.8,507.4z"/>
<path class="st1" d="M341.6,379.1h35.1v7.8l-20.4,15.5c-0.6,0.5-1.4,0.9-2.4,1.5c-1,0.5-2.3,1.1-3.7,1.7c1-0.2,2.1-0.3,3.1-0.4
	s2.3-0.1,3.8-0.1h19.6v7.2h-35.1v-7.4l20.8-16c0.6-0.5,1.4-0.9,2.4-1.5c1-0.5,2.3-1.1,3.8-1.7c-1,0.2-2,0.3-3.1,0.4
	c-1,0.1-2.3,0.1-3.9,0.1h-20L341.6,379.1L341.6,379.1z"/>
<path class="st1" d="M359.1,458.9c-2.5,0-4.9-0.5-7.1-1.4c-2.2-0.9-4.2-2.3-5.9-4c-1.7-1.8-3.1-3.9-4-6.2c-0.9-2.3-1.4-4.6-1.4-7.1
	c0-2.1,0.4-4.2,1.1-6.3c0.7-2.1,1.8-3.9,3.1-5.6c1.8-2.2,3.9-3.9,6.3-5.1s5.1-1.8,7.9-1.8c2.5,0,4.9,0.5,7.1,1.4
	c2.2,0.9,4.2,2.3,5.9,4.1c1.7,1.8,3,3.8,4,6.1c0.9,2.3,1.4,4.7,1.4,7.2s-0.5,4.8-1.4,7.1c-0.9,2.3-2.3,4.4-4,6.1
	c-1.7,1.8-3.7,3.1-5.9,4C363.9,458.4,361.6,458.9,359.1,458.9L359.1,458.9z M347.3,440.2c0,3.2,1.1,5.8,3.4,7.9
	c2.2,2.1,5,3.1,8.4,3.1s6.1-1,8.4-3.1c2.3-2.1,3.4-4.7,3.4-7.8s-1.1-5.8-3.4-7.9s-5.1-3.1-8.4-3.1s-6.2,1-8.4,3.1
	C348.4,434.3,347.3,436.9,347.3,440.2L347.3,440.2z"/>
<path class="st1" d="M341.6,493.5v-8.7l16.4-9.2h-16.4v-7.5h35.1v10.7c0,4.3-0.8,7.5-2.5,9.6c-1.6,2.1-4.1,3.2-7.5,3.2
	c-2.4,0-4.5-0.7-6.2-2.2c-1.7-1.5-2.7-3.3-3-5.6L341.6,493.5L341.6,493.5z M361.7,475.7v1.1c0,3,0.3,5,1,6c0.7,1,1.8,1.5,3.5,1.5
	s3-0.5,3.7-1.6c0.7-1,1.1-3,1.1-5.9v-1.1L361.7,475.7L361.7,475.7z"/>
<path class="st1" d="M371,513.2l-28.7,1.9l-0.5-7.5l28.7-1.9l-0.6-8.6l6.4-0.4l1.7,24.7l-6.4,0.4L371,513.2L371,513.2z"/>
<path class="st1" d="M344.5,535l33.9-9.1l2,7.2l-13.6,3.7l4,14.7l13.6-3.7l2,7.2l-33.9,9.1l-2-7.2l14.2-3.8l-4-14.7l-14.2,3.8
	L344.5,535L344.5,535z"/>
<path class="st1" d="M364.4,592.1l36.7-8.1l4.7,7.2l-21.9,30.6l-4.7-7.1l4.7-6.5l-7.5-11.4l-7.6,2L364.4,592.1L364.4,592.1z
	 M387.8,603.4l7.3-9.5c0.2-0.3,0.6-0.7,1.2-1.3c0.6-0.6,1.3-1.3,2.2-2.1c-1.1,0.5-2,0.8-2.9,1.2c-0.9,0.3-1.4,0.5-1.8,0.6l-11.4,3
	L387.8,603.4L387.8,603.4z"/>
<path class="st1" d="M390.7,628.9l25.5-24.2l5.2,5.4l-20.8,19.8l8.3,8.7l-4.6,4.4L390.7,628.9L390.7,628.9z"/>
<path class="st1" d="M456.5,639.3l-12.9,17.7c-2.8,3.8-5.9,6-9.3,6.4c-3.4,0.4-7.2-0.8-11.2-3.8c-4.1-3-6.5-6.2-7.2-9.6
	c-0.6-3.4,0.4-7,3.2-10.8l12.9-17.7l6,4.4l-12.2,16.7c-1.7,2.3-2.5,4.5-2.3,6.4c0.2,1.9,1.3,3.7,3.4,5.2c2.1,1.5,4.1,2,6,1.6
	c1.9-0.4,3.7-1.8,5.4-4.1l12.2-16.7L456.5,639.3L456.5,639.3z"/>
<path class="st1" d="M446,674.1l18.2-30.5l7.3,3l-1.5,21.7c0,0.5-0.1,1.1-0.3,1.9s-0.4,1.8-0.6,2.8c0.5-1,1-1.8,1.5-2.5
	s0.9-1.3,1.1-1.6l14.2-16.5l7.2,2.9l-8.3,34.5l-6.6-2.7l5.6-20.6c0.4-1.5,0.7-2.7,1-3.4c0.2-0.8,0.5-1.5,0.8-2.1
	c0.1-0.3,0.2-0.6,0.3-0.8c0.1-0.2,0.1-0.3,0.2-0.4c-0.7,1.2-1.4,2.2-2,3c-0.6,0.8-1,1.5-1.4,1.9l-15.4,18l-3.9-1.6l1.7-23.5
	c0-0.2,0.1-0.8,0.3-1.8c0.2-1,0.4-2.3,0.7-4.2l-0.4,1c-0.6,1.5-1.5,3.3-2.7,5.4l-0.1,0.1l-10.4,18.7L446,674.1L446,674.1z"/>
<path class="st1" d="M496.9,692.6l4.8-34.8l7.7,1.1l12.6,22.3c0.4,0.6,0.7,1.5,1.1,2.6s0.8,2.4,1.2,3.9c0-1,0-2.1,0-3.1
	c0.1-1,0.2-2.3,0.4-3.8l2.7-19.5l7.1,1l-4.8,34.8l-7.3-1l-13-22.8c-0.4-0.6-0.7-1.5-1.1-2.6s-0.8-2.4-1.2-4c0,1,0,2,0,3.1
	s-0.2,2.3-0.4,3.9l-2.7,19.9L496.9,692.6L496.9,692.6z"/>
<path class="st1" d="M543.7,696.7l-1.2-35.1l7.5-0.3l1.2,35.1L543.7,696.7z"/>
<path class="st1" d="M580.4,693.5l2.8-37.5l8.2-2.5l23,29.8l-8.2,2.4l-4.9-6.3l-13,3.9l-0.2,7.8L580.4,693.5L580.4,693.5z
	 M598,674.3l-7-9.8c-0.2-0.3-0.5-0.8-0.9-1.5c-0.4-0.7-0.9-1.6-1.4-2.7c0.1,1.2,0.2,2.2,0.3,3.1c0.1,0.9,0.1,1.5,0.1,1.9l-0.4,11.8
	L598,674.3L598,674.3z"/>
<path class="st1" d="M619.5,675.9l1.5-6.1c1.1,0.9,2.3,1.4,3.7,1.5s2.7-0.2,4-0.8c1.6-0.8,2.6-1.8,3.1-3c0.5-1.2,0.5-2.4-0.2-3.7
	c-0.8-1.5-3-2.2-6.8-2c-1.2,0-2.2,0.1-2.9,0.1c-3.5,0-6.1-0.4-7.8-1.2s-3.1-2.2-4.1-4c-1.3-2.6-1.4-5.2-0.2-7.9
	c1.2-2.7,3.4-4.9,6.6-6.6c1.9-1,3.7-1.5,5.4-1.5c1.7,0,3.5,0.3,5.2,1.2l-2,5.8c-0.9-0.7-1.9-1-2.9-1.1s-2,0.2-3.2,0.8
	c-1.3,0.7-2.2,1.6-2.7,2.7c-0.5,1.1-0.4,2.1,0.1,3.2c0.9,1.6,3.2,2.3,7.2,2c0.8-0.1,1.4-0.1,1.8-0.1c3.3-0.2,5.9,0.2,8,1
	c2.1,0.9,3.6,2.2,4.6,4.2c1.5,2.9,1.7,5.8,0.7,8.5c-1.1,2.8-3.3,5-6.7,6.8c-2.4,1.2-4.6,1.9-6.8,2C623,677.6,621.1,677,619.5,675.9
	L619.5,675.9z"/>
<path class="st1" d="M648.1,660.2l0.5-6.3c1.2,0.7,2.5,1,3.9,0.9s2.7-0.6,3.8-1.5c1.4-1.1,2.3-2.2,2.6-3.5s0-2.5-0.8-3.6
	c-1-1.3-3.4-1.6-7.1-0.9c-1.2,0.2-2.2,0.4-2.9,0.5c-3.4,0.6-6,0.6-7.9,0.1c-1.9-0.5-3.4-1.6-4.7-3.3c-1.8-2.3-2.3-4.9-1.6-7.8
	c0.7-2.9,2.5-5.4,5.4-7.6c1.7-1.3,3.4-2.1,5.1-2.4c1.7-0.3,3.5-0.2,5.4,0.3l-1,6.1c-1-0.5-2.1-0.7-3.1-0.6s-2,0.6-3,1.3
	c-1.2,0.9-1.9,1.9-2.2,3.1s-0.1,2.2,0.7,3.1c1.1,1.5,3.6,1.7,7.4,0.8c0.8-0.2,1.3-0.3,1.8-0.4c3.2-0.7,5.9-0.8,8-0.3
	c2.2,0.5,3.9,1.6,5.2,3.4c2,2.6,2.7,5.4,2.1,8.3c-0.6,2.9-2.4,5.5-5.5,7.8c-2.1,1.6-4.3,2.6-6.3,3.1S649.9,661,648.1,660.2
	L648.1,660.2z"/>
<path class="st1" d="M689.8,602.6c1.9,1.7,3.4,3.6,4.5,5.7s1.7,4.5,1.8,6.9c0.1,2.5-0.2,5-1,7.3c-0.8,2.3-2,4.4-3.6,6.3
	c-1.4,1.6-3.1,3-5,4c-1.9,1.1-3.9,1.8-6.1,2.2c-2.8,0.5-5.5,0.4-8.1-0.3c-2.6-0.7-5-2-7.1-3.8c-1.9-1.7-3.4-3.6-4.5-5.7
	c-1.1-2.2-1.7-4.5-1.8-7c-0.1-2.5,0.2-4.9,1-7.2c0.8-2.4,2-4.5,3.6-6.3c1.6-1.8,3.5-3.3,5.8-4.5c2.2-1.1,4.6-1.8,7-2
	c2.5-0.2,4.8,0.1,7.1,0.8S687.8,600.9,689.8,602.6L689.8,602.6z M686.3,624.4c2.1-2.4,3-5.1,2.6-8.1c-0.3-3-1.8-5.6-4.3-7.8
	c-2.5-2.2-5.3-3.2-8.4-3.1c-3.1,0.1-5.7,1.3-7.7,3.7c-2.1,2.4-3,5.1-2.6,8.2c0.3,3.1,1.8,5.7,4.3,7.9c2.6,2.2,5.3,3.3,8.4,3.2
	C681.6,628.1,684.2,626.8,686.3,624.4L686.3,624.4z"/>
<path class="st1" d="M700.3,565.5c-1.9,0.7-3.5,1.6-4.8,2.7c-1.3,1.1-2.4,2.5-3.2,4.1c-1.8,3.3-2.2,6.5-1.2,9.5s3.1,5.4,6.4,7.2
	c3.3,1.7,6.3,2.2,9.2,1.4c2.9-0.8,5.2-2.8,6.8-6c1-1.8,1.5-3.6,1.7-5.5c0.2-1.9,0.1-3.8-0.4-5.7l6.8,3.6c0.1,1.8-0.1,3.7-0.5,5.4
	s-1.1,3.5-2,5.2c-2.6,5-6.3,8.2-11,9.8s-9.5,1.1-14.2-1.4c-4.7-2.5-7.8-6.1-9.2-10.9c-1.4-4.8-0.8-9.7,1.9-14.7
	c0.9-1.7,1.9-3.2,3.1-4.6c1.2-1.4,2.5-2.6,4.1-3.8L700.3,565.5L700.3,565.5z"/>
<path class="st1" d="M727.6,565.5l-33.2-11.3l2.4-7.1l33.2,11.3L727.6,565.5z"/>
<path class="st1" d="M733.4,549.4l-32.3-19.2l1.5-8.5l36.9-7.4l-1.5,8.4l-7.8,1.5l-2.3,13.4l6.9,3.7L733.4,549.4L733.4,549.4z
	 M724.1,525.1l-11.8,1.9c-0.3,0-0.9,0.1-1.8,0.1s-1.8,0-3,0c1.1,0.4,2,0.8,2.9,1.1c0.9,0.3,1.4,0.6,1.7,0.7l10.4,5.6L724.1,525.1z"
	/>
<path class="st1" d="M710.7,494l28.7,0.5l-0.1,7.5l-28.7-0.5l-0.1,8.6L704,510l0.4-24.7l6.4,0.1L710.7,494L710.7,494z"/>
<path class="st1" d="M739.4,477.6h-35.1v-7.5h35.1V477.6z"/>
<path class="st1" d="M721.9,423.2c2.5,0,4.9,0.5,7.1,1.4c2.2,0.9,4.2,2.3,5.9,4c1.7,1.8,3.1,3.9,4,6.2c0.9,2.3,1.4,4.6,1.4,7.1
	c0,2.1-0.4,4.2-1.1,6.3c-0.7,2.1-1.8,3.9-3.1,5.6c-1.8,2.2-3.9,3.9-6.3,5.1s-5.1,1.8-7.9,1.8c-2.5,0-4.9-0.5-7.1-1.4
	c-2.2-0.9-4.2-2.3-5.9-4.1c-1.7-1.8-3-3.8-4-6.1s-1.4-4.7-1.4-7.2s0.5-4.8,1.4-7.1c0.9-2.3,2.3-4.4,4-6.1c1.7-1.8,3.7-3.1,5.9-4
	C717,423.7,719.4,423.2,721.9,423.2L721.9,423.2z M733.6,441.9c0-3.2-1.1-5.8-3.3-7.9c-2.2-2.1-5-3.1-8.4-3.1s-6.1,1-8.4,3.1
	c-2.3,2.1-3.4,4.7-3.4,7.8s1.1,5.8,3.4,7.9s5.1,3.1,8.4,3.1s6.2-1,8.4-3.1C732.5,447.8,733.6,445.2,733.6,441.9L733.6,441.9z"/>
<path class="st1" d="M739.4,413.9h-35.1v-7.8l20.4-15.5c0.6-0.5,1.4-0.9,2.4-1.5c1-0.5,2.3-1.1,3.7-1.7c-1,0.2-2.1,0.3-3.1,0.4
	c-1,0.1-2.3,0.1-3.8,0.1h-19.6v-7.2h35.1v7.4l-20.8,16c-0.6,0.5-1.4,0.9-2.4,1.5c-1,0.5-2.3,1.1-3.8,1.7c1-0.2,2-0.3,3.1-0.4
	c1-0.1,2.3-0.1,3.9-0.1h20L739.4,413.9L739.4,413.9z"/>
<path class="st1" d="M646.1,498.9l-21.6,6v11.1c-15.6,1.7-27.1,9.5-27.1,9.5s-11.5-7.8-27.1-9.5v-11.1l-21.6-6l48.7-13.5
	L646.1,498.9z"/>
<polygon class="st1" points="491.3,322.8 491.1,322.8 477.5,271.4 460.5,271.4 460.5,357.2 472.7,357.2 472.7,295 472.9,295 
	489.5,357.2 503.3,357.2 503.3,271.4 491.3,271.4 "/>
<path class="st1" d="M311.8,785.9c-4.8,0-8.5-0.9-10.9-2.7s-3.7-4.5-3.7-8.1c0-0.8,0-1.6,0.2-2.4c0.1-0.9,0.2-1.7,0.4-2.5
	c0.1-0.8,0.3-1.5,0.4-2.1c0.1-0.6,0.2-1,0.3-1.2l4.6,0.8c-0.1,0.5-0.2,1.2-0.4,2c-0.2,0.8-0.3,1.7-0.5,2.7s-0.2,1.9-0.2,2.8
	c0,1.6,0.3,2.9,1,3.8c0.7,1,1.8,1.7,3.2,2.1s3.4,0.6,5.8,0.6h13.4v-19.5h4.7v23.7H311.8L311.8,785.9z M307.9,763.1v-4.7h4.7v4.7
	H307.9z M314.4,763.1v-4.7h4.7v4.7H314.4z"/>
<path class="st1" d="M338,785.9v-33.8h4.7v33.8H338z"/>
<path class="st1" d="M348,796.9c-0.4,0-0.8,0-1.3-0.1c-0.5,0-1-0.1-1.4-0.1l0.4-4.2c0.4,0,0.9,0.1,1.3,0.1s0.8,0,1,0
	c1.4,0,2.5-0.5,3.3-1.6c0.8-1.1,1.2-2.5,1.2-4.4v-24.5h4.7v24.5c0,2-0.4,3.8-1.2,5.3c-0.8,1.5-1.9,2.8-3.3,3.6
	S349.9,796.9,348,796.9L348,796.9z"/>
<path class="st1" d="M365.1,785.9v-33.8h4.7v33.8H365.1z M369.8,785.9v-4.2h5.6v4.2H369.8z M375.4,785.9v-4.2c0.4,0,0.7,0.2,0.8,0.5
	s0.2,0.9,0.2,1.5s-0.1,1.1-0.2,1.5C376,785.7,375.8,785.9,375.4,785.9L375.4,785.9z"/>
<path class="st1" d="M375.3,785.9c-0.4,0-0.7-0.2-0.8-0.6s-0.2-0.9-0.2-1.5s0-1.1,0.2-1.5c0.1-0.4,0.4-0.5,0.8-0.5V785.9
	L375.3,785.9z M375.3,785.9v-4.2h11.8v4.2H375.3z M387.2,785.9v-4.2c0.4,0,0.7,0.2,0.8,0.5s0.2,0.9,0.2,1.5s0,1.1-0.2,1.5
	C387.8,785.7,387.6,785.9,387.2,785.9L387.2,785.9z"/>
<path class="st1" d="M387.2,785.9c-0.4,0-0.7-0.2-0.8-0.6s-0.2-0.9-0.2-1.5s0-1.1,0.2-1.5c0.1-0.4,0.4-0.5,0.8-0.5V785.9
	L387.2,785.9z M387.2,785.9v-4.2H399v4.2H387.2z M399,785.9v-4.2c0.4,0,0.7,0.2,0.8,0.5s0.2,0.9,0.2,1.5s0,1.1-0.2,1.5
	C399.7,785.7,399.4,785.9,399,785.9L399,785.9z"/>
<path class="st1" d="M399,785.9c-0.4,0-0.7-0.2-0.8-0.6s-0.2-0.9-0.2-1.5s0-1.1,0.2-1.5c0.1-0.4,0.4-0.5,0.8-0.5V785.9L399,785.9z
	 M399,785.9v-4.2h11.8v4.2H399z M410.8,785.9v-4.2c0.4,0,0.7,0.2,0.8,0.5s0.2,0.9,0.2,1.5s0,1.1-0.2,1.5
	C411.5,785.7,411.2,785.9,410.8,785.9L410.8,785.9z"/>
<path class="st1" d="M410.9,785.9c-0.4,0-0.7-0.2-0.8-0.6s-0.2-0.9-0.2-1.5s0-1.1,0.2-1.5c0.1-0.4,0.4-0.5,0.8-0.5V785.9
	L410.9,785.9z M410.9,785.9v-4.2h11.8v4.2H410.9z M422.7,785.9v-4.2c0.4,0,0.7,0.2,0.8,0.5s0.2,0.9,0.2,1.5s0,1.1-0.2,1.5
	C423.4,785.7,423.1,785.9,422.7,785.9L422.7,785.9z"/>
<path class="st1" d="M422.7,785.9c-0.4,0-0.7-0.2-0.8-0.6s-0.2-0.9-0.2-1.5s0-1.1,0.2-1.5c0.1-0.4,0.4-0.5,0.8-0.5V785.9
	L422.7,785.9z M422.7,785.9v-4.2h25.6l-3.6,3.3v-10.8c0-2-0.2-3.5-0.7-4.7s-1.2-2-2.3-2.4s-2.6-0.7-4.5-0.7c-1.4,0-2.7,0.1-4,0.3
	s-2.3,0.4-3,0.7l2.9-2.8c-0.2,0.8-0.4,1.7-0.5,2.8s-0.3,2.3-0.5,3.6c-0.1,1.3-0.2,2.6-0.2,3.9s0.1,2.5,0.2,3.7s0.3,2.3,0.4,3.2
	c0.1,0.9,0.3,1.6,0.4,2l-4.5,1.2c-0.1-0.4-0.3-1.1-0.5-2.2s-0.4-2.2-0.5-3.6s-0.2-2.9-0.2-4.4c0-2.4,0.2-4.6,0.5-6.7
	c0.3-2.1,0.6-3.7,0.9-4.8c0.7-0.3,1.8-0.6,3.4-0.8c1.6-0.3,3.3-0.4,5.2-0.4c4.1,0,7.1,0.9,9.2,2.7s3,5,3,9.4v11.6L422.7,785.9
	L422.7,785.9z M437.1,798c-1.9,0-3.6-0.1-5.1-0.3c-1.6-0.2-2.7-0.4-3.4-0.6c-0.3-0.8-0.6-1.8-0.9-3.3c-0.3-1.4-0.5-2.9-0.5-4.5
	s0.1-3,0.5-4.3c0.3-1.3,0.5-2.2,0.7-2.7l4.4,1.7c-0.1,0.2-0.2,0.7-0.3,1.3c-0.1,0.6-0.2,1.3-0.3,2.1s-0.1,1.4-0.1,2
	c0,0.7,0,1.4,0.1,2.2c0.1,0.8,0.2,1.5,0.4,2.2s0.4,1.4,0.5,1.9l-3.1-2.7c0.7,0.2,1.7,0.4,3.1,0.5s2.8,0.2,4.2,0.2
	c2,0,3.5-0.1,4.6-0.4s1.8-0.7,2.2-1.3s0.6-1.4,0.6-2.4v-7.9h4.7v7.9c0,3-1,5.2-3,6.4C444.2,797.3,441.2,798,437.1,798L437.1,798z
	 M449.3,785.9v-4.2h5.1v4.2H449.3z M454.4,785.9v-4.2c0.4,0,0.7,0.2,0.8,0.5s0.2,0.9,0.2,1.5s0,1.1-0.2,1.5
	C455.1,785.7,454.8,785.9,454.4,785.9L454.4,785.9z"/>
<path class="st1" d="M454.4,785.9c-0.4,0-0.7-0.2-0.8-0.6s-0.2-0.9-0.2-1.5s0-1.1,0.2-1.5c0.1-0.4,0.4-0.5,0.8-0.5V785.9
	L454.4,785.9z M454.4,785.9v-4.2h25.4l-2.8,2.1v-9.6c0-2-0.2-3.6-0.7-4.7c-0.5-1.1-1.2-2-2.3-2.4c-1.1-0.5-2.6-0.7-4.5-0.7
	c-1.3,0-2.6,0.1-3.9,0.3s-2.3,0.4-3,0.7l2.9-2.8c-0.2,0.7-0.4,1.7-0.6,2.8s-0.4,2.3-0.5,3.6c-0.1,1.3-0.2,2.6-0.2,3.8
	s0.1,2.5,0.2,3.8c0.1,1.3,0.3,2.4,0.4,3.3s0.3,1.6,0.4,2l-4.5,1.2c-0.1-0.4-0.3-1.1-0.5-2.1s-0.4-2.2-0.5-3.6s-0.2-2.9-0.2-4.5
	s0.1-3,0.2-4.5c0.1-1.5,0.3-2.8,0.5-4s0.4-2.2,0.6-2.8c0.7-0.3,1.9-0.6,3.4-0.8c1.5-0.3,3.3-0.4,5.2-0.4c2.7,0,5,0.4,6.8,1.2
	s3.2,2.1,4.1,3.8c0.9,1.8,1.4,4.1,1.4,7.1v11.6L454.4,785.9L454.4,785.9z"/>
<path class="st1" d="M497.4,785.9v-11.1c0-3.1,0.5-5.5,1.4-7.4s2.3-3.2,4.1-4s4.1-1.2,6.8-1.2s5,0.4,6.9,1.2s3.2,2.2,4.1,4
	s1.4,4.3,1.4,7.4v11.1H497.4L497.4,785.9z M502.1,783.9l-2.4-2.1h19.9l-2.3,2.1v-9c0-2.1-0.2-3.8-0.7-5c-0.5-1.2-1.2-2.1-2.4-2.6
	s-2.7-0.8-4.6-0.8s-3.5,0.3-4.6,0.8c-1.1,0.5-1.9,1.4-2.3,2.6s-0.7,2.9-0.7,5L502.1,783.9L502.1,783.9z M504.2,758.5v-4.7h4.7v4.7
	H504.2z M510.7,758.5v-4.7h4.7v4.7H510.7z"/>
<path class="st1" d="M525.8,785.9v-4.2h17.5l-3.5,3.1v-9.4c0-2.3-0.2-4.1-0.8-5.4s-1.3-2.2-2.5-2.8s-2.7-0.8-4.7-0.8H528v-4.2h3.8
	c2.7,0,5,0.4,6.9,1.3c1.9,0.8,3.3,2.2,4.3,4.2s1.5,4.5,1.5,7.7V786L525.8,785.9L525.8,785.9z"/>
<path class="st1" d="M551.5,785.9v-33.8h4.7v33.8H551.5z M556.2,785.9v-4.2h5.6v4.2H556.2z M561.8,785.9v-4.2c0.4,0,0.7,0.2,0.8,0.5
	c0.1,0.4,0.2,0.9,0.2,1.5s-0.1,1.1-0.2,1.5C562.4,785.7,562.2,785.9,561.8,785.9L561.8,785.9z"/>
<path class="st1" d="M561.8,785.9c-0.4,0-0.7-0.2-0.8-0.6c-0.1-0.4-0.2-0.9-0.2-1.5s0-1.1,0.2-1.5c0.1-0.4,0.4-0.5,0.8-0.5V785.9
	L561.8,785.9z M561.8,785.9v-4.2h8.5l-2.5,2v-21.5h4.7v23.7L561.8,785.9L561.8,785.9z M563.6,795v-4.7h4.7v4.7H563.6z M570.1,795
	v-4.7h4.7v4.7H570.1z"/>
<path class="st1" d="M581.3,796.9c-0.4,0-0.8,0-1.3-0.1c-0.5,0-1-0.1-1.4-0.1l0.4-4.2c0.4,0,0.9,0.1,1.3,0.1c0.4,0,0.8,0,1,0
	c1.4,0,2.5-0.5,3.3-1.6c0.8-1.1,1.2-2.5,1.2-4.4v-24.5h4.7v24.5c0,2-0.4,3.8-1.2,5.3s-1.9,2.8-3.3,3.6S583.2,796.9,581.3,796.9
	L581.3,796.9z M585.9,758v-4.7h4.7v4.7H585.9z"/>
<path class="st1" d="M617.2,785.9c-2.8,0-4.9-0.4-6.5-1.2s-2.8-2.1-3.5-3.9c-0.7-1.8-1-4-1-6.7s0.3-5,1-6.7s1.8-3.1,3.5-3.9
	s3.8-1.3,6.5-1.3h10.1v21.4h-4.7v-18.7l1.8,1.5h-7.2c-1.6,0-2.9,0.2-3.8,0.6s-1.6,1.1-1.9,2.2c-0.4,1.1-0.6,2.8-0.6,4.9
	s0.2,3.7,0.5,4.8c0.4,1.1,1,1.8,1.9,2.2c0.9,0.4,2.2,0.6,3.8,0.6h15.2v4.2L617.2,785.9L617.2,785.9z M612.1,758.5v-4.7h4.7v4.7
	H612.1z M618.6,758.5v-4.7h4.7v4.7H618.6z M632.4,785.9v-4.2c0.4,0,0.7,0.2,0.8,0.5c0.1,0.4,0.2,0.9,0.2,1.5s-0.1,1.1-0.2,1.5
	C633,785.7,632.8,785.9,632.4,785.9L632.4,785.9z"/>
<path class="st1" d="M632.4,785.9c-0.4,0-0.7-0.2-0.8-0.6c-0.1-0.4-0.2-0.9-0.2-1.5s0-1.1,0.2-1.5c0.1-0.4,0.4-0.5,0.8-0.5V785.9
	L632.4,785.9z M632.4,785.9v-4.2h11.8v4.2H632.4z M644.2,785.9v-4.2c0.4,0,0.7,0.2,0.8,0.5c0.1,0.4,0.2,0.9,0.2,1.5s0,1.1-0.2,1.5
	C644.9,785.7,644.6,785.9,644.2,785.9L644.2,785.9z"/>
<path class="st1" d="M644.2,785.9c-0.4,0-0.7-0.2-0.8-0.6c-0.1-0.4-0.2-0.9-0.2-1.5s0-1.1,0.2-1.5c0.1-0.4,0.4-0.5,0.8-0.5V785.9
	L644.2,785.9z M644.2,785.9v-4.2H656v4.2H644.2z M656,785.9v-4.2c0.4,0,0.7,0.2,0.8,0.5c0.1,0.4,0.2,0.9,0.2,1.5s0,1.1-0.2,1.5
	C656.7,785.7,656.5,785.9,656,785.9L656,785.9z"/>
<path class="st1" d="M656,785.9c-0.4,0-0.7-0.2-0.8-0.6c-0.1-0.4-0.2-0.9-0.2-1.5s0-1.1,0.2-1.5c0.1-0.4,0.4-0.5,0.8-0.5V785.9
	L656,785.9z M656,785.9v-4.2h11.8v4.2H656z M667.9,785.9v-4.2c0.4,0,0.7,0.2,0.8,0.5c0.1,0.4,0.2,0.9,0.2,1.5s0,1.1-0.2,1.5
	C668.5,785.7,668.3,785.9,667.9,785.9L667.9,785.9z"/>
<path class="st1" d="M667.9,785.9c-0.4,0-0.7-0.2-0.8-0.6c-0.1-0.4-0.2-0.9-0.2-1.5s0-1.1,0.2-1.5c0.1-0.4,0.4-0.5,0.8-0.5V785.9
	L667.9,785.9z M667.9,785.9v-4.2h11.8v4.2H667.9z M679.7,785.9v-4.2c0.4,0,0.7,0.2,0.8,0.5c0.1,0.4,0.2,0.9,0.2,1.5s0,1.1-0.2,1.5
	C680.4,785.7,680.1,785.9,679.7,785.9L679.7,785.9z"/>
<path class="st1" d="M679.7,785.9c-0.4,0-0.7-0.2-0.8-0.6c-0.1-0.4-0.2-0.9-0.2-1.5s0-1.1,0.2-1.5c0.1-0.4,0.4-0.5,0.8-0.5V785.9
	L679.7,785.9z M679.7,785.9v-4.2h8.5l-2.5,2v-21.5h4.7v23.7L679.7,785.9L679.7,785.9z M681.6,795v-4.7h4.7v4.7H681.6z M688.1,795
	v-4.7h4.7v4.7H688.1z M690.5,785.9v-4.2h5.4v4.2H690.5z M695.9,785.9v-4.2c0.4,0,0.7,0.2,0.8,0.5c0.1,0.4,0.2,0.9,0.2,1.5
	s-0.1,1.1-0.2,1.5C696.6,785.7,696.3,785.9,695.9,785.9L695.9,785.9z"/>
<path class="st1" d="M695.9,785.9c-0.4,0-0.7-0.2-0.8-0.6c-0.1-0.4-0.2-0.9-0.2-1.5s0-1.1,0.2-1.5c0.1-0.4,0.4-0.5,0.8-0.5V785.9
	L695.9,785.9z M695.9,785.9v-4.2h7.8c1.7,0,3.3-0.3,4.8-0.9c1.5-0.6,3-1.4,4.3-2.3c1.3-1,2.4-2,3.4-3.2c1-1.2,1.7-2.4,2.2-3.6
	c0.5-1.2,0.8-2.4,0.8-3.4v-2.9l2.4,3.8c-1.8-0.9-3.5-1.6-5.2-2.1c-1.7-0.5-3.4-0.7-5.1-0.7s-3.3,0.2-5,0.7s-3.5,1.1-5.2,2.1l2.4-3.8
	v2.9c0,1.1,0.3,2.2,0.8,3.4s1.3,2.4,2.2,3.6c1,1.2,2.1,2.3,3.4,3.2s2.7,1.7,4.3,2.3c1.5,0.6,3.2,0.9,4.8,0.9h7.5v4.2h-6.7
	c-2.5,0-4.8-0.4-6.9-1.2c-2.2-0.8-4.1-1.8-5.8-3.2s-3.2-2.8-4.5-4.3c-1.2-1.6-2.2-3.1-2.9-4.7c-0.7-1.6-1-3-1-4.3v-2.8
	c1.4-0.7,2.8-1.3,4.2-1.8s2.9-0.9,4.3-1.1s2.8-0.4,4-0.4c1.3,0,2.7,0.1,4.1,0.4s2.8,0.6,4.3,1.1c1.4,0.5,2.8,1.1,4.2,1.8v2.8
	c0,1.3-0.3,2.7-1,4.3c-0.7,1.6-1.6,3.1-2.9,4.7c-1.2,1.6-2.7,3-4.5,4.3c-1.7,1.3-3.7,2.4-5.8,3.2c-2.2,0.8-4.5,1.2-6.9,1.2H695.9
	L695.9,785.9z M726.6,785.9v-4.2c0.4,0,0.6,0.2,0.8,0.5c0.1,0.4,0.2,0.9,0.2,1.5s-0.1,1.1-0.2,1.5
	C727.2,785.7,727,785.9,726.6,785.9L726.6,785.9z"/>
<path class="st1" d="M726.6,785.9c-0.4,0-0.7-0.2-0.8-0.6c-0.1-0.4-0.2-0.9-0.2-1.5s0-1.1,0.2-1.5c0.1-0.4,0.4-0.5,0.8-0.5V785.9
	L726.6,785.9z M726.6,785.9v-4.2H752l-2.8,2.1v-9.6c0-2-0.2-3.6-0.7-4.7c-0.5-1.1-1.2-2-2.3-2.4c-1.1-0.5-2.6-0.7-4.5-0.7
	c-1.3,0-2.6,0.1-3.9,0.3s-2.3,0.4-3,0.7l2.9-2.8c-0.2,0.7-0.4,1.7-0.6,2.8s-0.3,2.3-0.5,3.6c-0.1,1.3-0.2,2.6-0.2,3.8
	s0.1,2.5,0.2,3.8c0.1,1.3,0.3,2.4,0.4,3.3s0.3,1.6,0.4,2l-4.5,1.2c-0.1-0.4-0.3-1.1-0.5-2.1s-0.3-2.2-0.5-3.6s-0.2-2.9-0.2-4.5
	s0.1-3,0.2-4.5c0.1-1.5,0.3-2.8,0.5-4s0.4-2.2,0.6-2.8c0.7-0.3,1.9-0.6,3.4-0.8c1.5-0.3,3.3-0.4,5.2-0.4c2.7,0,5,0.4,6.8,1.2
	s3.2,2.1,4.1,3.8c0.9,1.8,1.4,4.1,1.4,7.1v11.6L726.6,785.9L726.6,785.9z M753.9,785.9v-4.2h5.1v4.2H753.9z M759,785.9v-4.2
	c0.4,0,0.6,0.2,0.8,0.5s0.2,0.9,0.2,1.5s-0.1,1.1-0.2,1.5C759.6,785.7,759.4,785.9,759,785.9L759,785.9z"/>
<path class="st1" d="M759,785.9c-0.4,0-0.7-0.2-0.8-0.6c-0.1-0.4-0.2-0.9-0.2-1.5s0-1.1,0.2-1.5c0.1-0.4,0.4-0.5,0.8-0.5V785.9
	L759,785.9z M759,785.9v-4.2h20.7l-1.6,1.2v-10.6c0-2-0.6-3.5-1.8-4.5s-3.1-1.5-5.7-1.5c-0.8,0-1.9,0.1-3.3,0.2s-3,0.3-4.6,0.5
	l-0.5-3.8c1.3-0.3,2.7-0.6,4.2-0.8c1.5-0.2,2.9-0.3,4.3-0.3c2.5,0,4.6,0.4,6.4,1.2s3.2,2,4.2,3.5c1,1.5,1.5,3.4,1.5,5.5v13.5
	L759,785.9L759,785.9z M768.7,795.1v-4.7h4.7v4.7H768.7z"/>
<path class="st1" d="M363.3,859.2c-2.6,0-4.9-0.5-7-1.4c-2.1-1-3.7-2.3-4.9-4c-1.2-1.7-1.8-3.6-1.8-5.8c0-0.6,0-1.5,0.2-2.6
	c0.1-1.1,0.2-2.3,0.4-3.6c0.2-1.3,0.4-2.7,0.6-4c0.2-1.4,0.4-2.7,0.6-3.9l4.7,0.7c-0.4,2.2-0.6,4.1-0.9,5.9
	c-0.2,1.8-0.5,3.4-0.6,4.6c-0.1,1.3-0.2,2.2-0.2,2.8c0,1.4,0.4,2.6,1.1,3.6s1.8,1.9,3.1,2.5c1.4,0.6,2.9,0.9,4.7,0.9
	s3.4-0.3,4.6-0.8c1.2-0.6,2.2-1.4,2.8-2.4c0.6-1,1-2.2,1-3.5v-34.7h4.7v34.7c0,2.2-0.6,4.2-1.8,5.8c-1.2,1.6-2.7,2.9-4.7,3.7
	S365.8,859.2,363.3,859.2L363.3,859.2z"/>
<path class="st1" d="M384.3,847.4v-33.8h4.7v33.8H384.3z M389,847.4v-4.2h5.6v4.2H389z M394.6,847.4v-4.2c0.4,0,0.7,0.2,0.8,0.5
	s0.2,0.9,0.2,1.5s-0.1,1.1-0.2,1.5C395.2,847.2,395,847.4,394.6,847.4L394.6,847.4z"/>
<path class="st1" d="M394.6,847.4c-0.4,0-0.7-0.2-0.8-0.6s-0.2-0.9-0.2-1.5s0-1.1,0.2-1.5c0.1-0.4,0.4-0.5,0.8-0.5V847.4
	L394.6,847.4z M394.6,847.4v-4.2h11.8v4.2H394.6z M406.4,847.4v-4.2c0.4,0,0.7,0.2,0.8,0.5s0.2,0.9,0.2,1.5s0,1.1-0.2,1.5
	C407.1,847.2,406.8,847.4,406.4,847.4L406.4,847.4z"/>
<path class="st1" d="M406.4,847.4c-0.4,0-0.7-0.2-0.8-0.6s-0.2-0.9-0.2-1.5s0-1.1,0.2-1.5c0.1-0.4,0.4-0.5,0.8-0.5V847.4
	L406.4,847.4z M406.4,847.4v-4.2h11.8v4.2H406.4z M418.2,847.4v-4.2c0.4,0,0.7,0.2,0.8,0.5s0.2,0.9,0.2,1.5s0,1.1-0.2,1.5
	C418.9,847.2,418.6,847.4,418.2,847.4L418.2,847.4z"/>
<path class="st1" d="M418.2,847.4c-0.4,0-0.7-0.2-0.8-0.6s-0.2-0.9-0.2-1.5s0-1.1,0.2-1.5c0.1-0.4,0.4-0.5,0.8-0.5V847.4
	L418.2,847.4z M418.2,847.4v-4.2h11.8v4.2H418.2z M430.1,847.4v-4.2c0.4,0,0.7,0.2,0.8,0.5s0.2,0.9,0.2,1.5s0,1.1-0.2,1.5
	C430.7,847.2,430.5,847.4,430.1,847.4L430.1,847.4z"/>
<path class="st1" d="M430.1,847.4c-0.4,0-0.7-0.2-0.8-0.6s-0.2-0.9-0.2-1.5s0-1.1,0.2-1.5c0.1-0.4,0.4-0.5,0.8-0.5V847.4
	L430.1,847.4z M430.1,847.4v-4.2h11.8v4.2H430.1z M441.9,847.4v-4.2c0.4,0,0.7,0.2,0.8,0.5s0.2,0.9,0.2,1.5s0,1.1-0.2,1.5
	C442.6,847.2,442.3,847.4,441.9,847.4L441.9,847.4z"/>
<path class="st1" d="M441.9,847.4c-0.4,0-0.7-0.2-0.8-0.6s-0.2-0.9-0.2-1.5s0-1.1,0.2-1.5c0.1-0.4,0.4-0.5,0.8-0.5V847.4
	L441.9,847.4z M441.9,847.4v-4.2h25.4l-2.8,2.1v-9.6c0-2-0.2-3.6-0.7-4.7c-0.5-1.1-1.2-2-2.3-2.4c-1.1-0.5-2.6-0.7-4.5-0.7
	c-1.3,0-2.6,0.1-3.9,0.3s-2.3,0.4-3,0.7l2.9-2.8c-0.2,0.7-0.4,1.7-0.6,2.8s-0.4,2.3-0.5,3.6c-0.1,1.3-0.2,2.6-0.2,3.8
	s0.1,2.5,0.2,3.8c0.1,1.3,0.3,2.4,0.4,3.3s0.3,1.6,0.4,2l-4.5,1.2c-0.1-0.4-0.3-1.1-0.5-2.1s-0.4-2.2-0.5-3.6s-0.2-2.9-0.2-4.5
	s0.1-3,0.2-4.5c0.1-1.5,0.3-2.8,0.5-4s0.4-2.2,0.6-2.8c0.7-0.3,1.9-0.6,3.4-0.8c1.5-0.3,3.3-0.4,5.2-0.4c2.7,0,5,0.4,6.8,1.2
	s3.2,2.1,4.1,3.8c0.9,1.8,1.4,4.1,1.4,7.1v11.6L441.9,847.4L441.9,847.4z M469.2,847.4v-4.2h5.1v4.2H469.2z M474.3,847.4v-4.2
	c0.4,0,0.6,0.2,0.8,0.5s0.2,0.9,0.2,1.5s-0.1,1.1-0.2,1.5C474.9,847.2,474.7,847.4,474.3,847.4L474.3,847.4z"/>
<path class="st1" d="M474.3,847.4c-0.4,0-0.7-0.2-0.8-0.6s-0.2-0.9-0.2-1.5s0-1.1,0.2-1.5c0.1-0.4,0.4-0.5,0.8-0.5V847.4
	L474.3,847.4z M474.3,847.4v-4.2h6.9l-1.1,1.1v-15.9h4.7v18.9L474.3,847.4L474.3,847.4z M484.7,847.4v-4.2h4.8c1,0,1.8-0.2,2.4-0.5
	c0.5-0.3,0.9-1,1.1-1.9c0.2-1,0.3-2.3,0.3-4.2v-10.6h4.7v10.6c0,2.6-0.3,4.7-0.9,6.2s-1.5,2.7-2.8,3.4c-1.2,0.7-2.9,1-4.9,1H484.7
	L484.7,847.4z M489.7,819.5v-4.7h4.6v4.7H489.7z M493.6,812.8v-4.3h4.2v4.3H493.6z M500.3,847.4c-1.2,0-2.3-0.2-3.4-0.7
	s-2.2-1.1-3.1-2l3-3.1c0.7,0.6,1.3,1,1.9,1.2c0.5,0.3,1.1,0.4,1.7,0.4h8.6l-2.2,2.1v-11c0-0.5-0.1-1.3-0.2-2.4
	c-0.1-1-0.3-2.2-0.5-3.5c-0.2-1.3-0.4-2.6-0.7-4l4.6-0.8c0.2,1.1,0.4,2.4,0.7,3.8s0.4,2.7,0.6,3.9s0.2,2.2,0.2,3v13.1L500.3,847.4
	L500.3,847.4z M497,819.4v-4.7h4.6v4.7H497z M511.5,847.4v-4.2h5.1v4.2H511.5L511.5,847.4z M516.5,847.4v-4.2c0.4,0,0.7,0.2,0.8,0.5
	c0.1,0.4,0.2,0.9,0.2,1.5s-0.1,1.1-0.2,1.5C517.2,847.2,516.9,847.4,516.5,847.4L516.5,847.4z"/>
<path class="st1" d="M516.5,847.4c-0.4,0-0.7-0.2-0.8-0.6c-0.1-0.4-0.2-0.9-0.2-1.5s0-1.1,0.2-1.5c0.1-0.4,0.4-0.5,0.8-0.5V847.4
	L516.5,847.4z M516.5,847.4v-4.2h5.6v4.2H516.5z M522.1,847.4v-33.8h4.7v33.8H522.1z"/>
<path class="st1" d="M534.8,847.4v-33.8h4.7v33.8H534.8z"/>
<path class="st1" d="M569.7,859.2c-1.9,0-3.7-0.3-5.3-0.8c-1.6-0.5-3.1-1.3-4.3-2.3s-2.2-2.1-2.9-3.5c-0.7-1.3-1-2.8-1-4.4
	c0-0.6,0-1.4,0.2-2.4c0.1-1,0.2-2.2,0.4-3.4c0.2-1.3,0.4-2.6,0.6-4l4.6,0.6c-0.3,2.1-0.6,4-0.8,5.6c-0.2,1.7-0.3,2.8-0.3,3.5
	c0,1.3,0.4,2.5,1.1,3.5c0.7,1,1.8,1.8,3.1,2.4c1.3,0.6,2.9,0.9,4.6,0.9h13.4c2.3,0,4-0.6,5.1-1.8c1.1-1.2,1.7-3,1.7-5.3v-1.7h4.7
	v1.7c0,2.2-0.5,4.2-1.3,5.9s-2.2,3-3.9,4s-3.8,1.4-6.2,1.4L569.7,859.2L569.7,859.2z M569.8,868.3v-4.7h4.7v4.7H569.8z M576.2,868.3
	v-4.7h4.7v4.7H576.2z M587.4,847.4c-1.2,0-2.4-0.1-3.6-0.4s-2.3-0.8-3.4-1.5l2.7-3.5c0.5,0.3,0.9,0.5,1.3,0.7s0.9,0.3,1.3,0.4
	s1.1,0.1,1.7,0.1h9.5v4.2H587.4L587.4,847.4z M597,847.4v-4.2c0.4,0,0.7,0.2,0.8,0.5c0.1,0.4,0.2,0.9,0.2,1.5s-0.1,1.1-0.2,1.5
	C597.6,847.2,597.4,847.4,597,847.4L597,847.4z"/>
<path class="st1" d="M597,847.4c-0.4,0-0.7-0.2-0.8-0.6c-0.1-0.4-0.2-0.9-0.2-1.5s0-1.1,0.2-1.5c0.1-0.4,0.4-0.5,0.8-0.5V847.4
	L597,847.4z M597,847.4v-4.2h20.7l-1.6,1.2v-10.6c0-2-0.6-3.5-1.8-4.5s-3.1-1.5-5.7-1.5c-0.8,0-1.9,0.1-3.3,0.2s-3,0.3-4.6,0.5
	l-0.5-3.8c1.3-0.3,2.7-0.6,4.2-0.8c1.5-0.2,2.9-0.3,4.3-0.3c2.5,0,4.6,0.4,6.4,1.2s3.2,2,4.2,3.5c1,1.5,1.5,3.4,1.5,5.5v13.5
	L597,847.4L597,847.4z M606.6,856.6v-4.7h4.7v4.7H606.6z M620.8,847.4v-4.2h5.1v4.2H620.8z M625.9,847.4v-4.2c0.4,0,0.7,0.2,0.8,0.5
	c0.1,0.4,0.2,0.9,0.2,1.5s-0.1,1.1-0.2,1.5C626.6,847.2,626.3,847.4,625.9,847.4L625.9,847.4z"/>
<path class="st1" d="M625.9,847.4c-0.4,0-0.7-0.2-0.8-0.6c-0.1-0.4-0.2-0.9-0.2-1.5s0-1.1,0.2-1.5c0.1-0.4,0.4-0.5,0.8-0.5V847.4
	L625.9,847.4z M625.9,847.4v-4.2h11.8v4.2H625.9z M637.7,847.4v-4.2c0.4,0,0.7,0.2,0.8,0.5c0.1,0.4,0.2,0.9,0.2,1.5s0,1.1-0.2,1.5
	C638.4,847.2,638.1,847.4,637.7,847.4L637.7,847.4z"/>
<path class="st1" d="M637.7,847.4c-0.4,0-0.7-0.2-0.8-0.6c-0.1-0.4-0.2-0.9-0.2-1.5s0-1.1,0.2-1.5c0.1-0.4,0.4-0.5,0.8-0.5V847.4
	L637.7,847.4z M637.7,847.4v-4.2h11.8v4.2H637.7z M649.5,847.4v-4.2c0.4,0,0.7,0.2,0.8,0.5c0.1,0.4,0.2,0.9,0.2,1.5s0,1.1-0.2,1.5
	C650.2,847.2,650,847.4,649.5,847.4L649.5,847.4z"/>
<path class="st1" d="M649.6,847.4c-0.4,0-0.7-0.2-0.8-0.6c-0.1-0.4-0.2-0.9-0.2-1.5s0-1.1,0.2-1.5c0.1-0.4,0.4-0.5,0.8-0.5V847.4
	L649.6,847.4z M649.6,847.4v-4.2h11.8v4.2H649.6z M661.4,847.4v-4.2c0.4,0,0.7,0.2,0.8,0.5c0.1,0.4,0.2,0.9,0.2,1.5s0,1.1-0.2,1.5
	C662.1,847.2,661.8,847.4,661.4,847.4L661.4,847.4z"/>
<path class="st1" d="M661.4,847.4c-0.4,0-0.7-0.2-0.8-0.6c-0.1-0.4-0.2-0.9-0.2-1.5s0-1.1,0.2-1.5c0.1-0.4,0.4-0.5,0.8-0.5V847.4
	L661.4,847.4z M661.4,847.4v-4.2h11.8v4.2H661.4z M673.2,847.4v-4.2c0.4,0,0.7,0.2,0.8,0.5c0.1,0.4,0.2,0.9,0.2,1.5s0,1.1-0.2,1.5
	C673.9,847.2,673.6,847.4,673.2,847.4L673.2,847.4z"/>
<path class="st1" d="M673.2,847.4c-0.4,0-0.7-0.2-0.8-0.6c-0.1-0.4-0.2-0.9-0.2-1.5s0-1.1,0.2-1.5c0.1-0.4,0.4-0.5,0.8-0.5V847.4
	L673.2,847.4z M673.2,847.4v-4.2h8.5l-2.5,2v-21.5h4.7v23.7L673.2,847.4L673.2,847.4z M675.1,856.5v-4.7h4.7v4.7H675.1z
	 M681.6,856.5v-4.7h4.7v4.7H681.6z"/>
<path class="st1" d="M692.2,858.4c-0.4,0-0.8,0-1.3-0.1c-0.5,0-1-0.1-1.4-0.1l0.4-4.2c0.4,0,0.9,0.1,1.3,0.1c0.4,0,0.8,0,1,0
	c1.4,0,2.5-0.5,3.3-1.6c0.8-1.1,1.2-2.5,1.2-4.4v-24.5h4.7v24.5c0,2-0.4,3.8-1.2,5.3s-1.9,2.8-3.3,3.6S694,858.4,692.2,858.4
	L692.2,858.4z M700.4,847.4v-4.2h6.1v4.2H700.4z M706.5,847.4v-4.2c0.4,0,0.6,0.2,0.8,0.5s0.2,0.9,0.2,1.5s-0.1,1.1-0.2,1.5
	C707.2,847.2,706.9,847.4,706.5,847.4L706.5,847.4z"/>
<path class="st1" d="M706.5,847.4c-0.4,0-0.7-0.2-0.8-0.6c-0.1-0.4-0.2-0.9-0.2-1.5s0-1.1,0.2-1.5c0.1-0.4,0.4-0.5,0.8-0.5V847.4
	L706.5,847.4z M706.5,847.4v-4.2h20.7l-1.6,1.2v-10.6c0-2-0.6-3.5-1.8-4.5s-3.1-1.5-5.7-1.5c-0.8,0-1.9,0.1-3.3,0.2s-3,0.3-4.6,0.5
	l-0.5-3.8c1.3-0.3,2.7-0.6,4.2-0.8c1.5-0.2,2.9-0.3,4.3-0.3c2.5,0,4.6,0.4,6.4,1.2s3.2,2,4.2,3.5c1,1.5,1.5,3.4,1.5,5.5v13.5
	L706.5,847.4L706.5,847.4z M715.9,820.3v-4.7h4.7v4.7H715.9z"/>
<path class="st1" d="M401.3,211.7v286.7c0,76.8,62.5,139.2,139.2,139.2s139.2-62.5,139.2-139.2V211.7 M656.4,214.5v199.8H541.6
	V214.5 M541.6,416.7h114.8v84.2c0,63.5-51.4,115.2-114.8,115.9V416.7z M539.3,214.5v199.8H424.6V214.5 M424.6,416.7h114.7v200
	c-63.4-0.6-114.7-52.4-114.7-115.9V416.7z M676.9,498.4c0,75.2-61.2,136.4-136.4,136.4s-136.4-61.2-136.4-136.4V214.5h18.2v286.3
	c0,64.8,52.4,117.6,117.1,118.2v0h2.3v0c64.7-0.6,117.1-53.4,117.1-118.2V214.5h18.2V498.4z"/>
<path class="st1" d="M700.4,211.7v145.1c0,2,1.2,3.7,3.1,4.4c0.5,0.2,1,0.3,1.5,0.3c1.4,0,2.7-0.6,3.6-1.8l12-15.7
	c0.7-0.9,2.2-0.9,2.8,0l12,15.7c1.2,1.6,3.2,2.2,5.1,1.6c1.9-0.6,3.1-2.3,3.1-4.4V211.7L700.4,211.7L700.4,211.7z M741,356.8
	c0,1.2-0.9,1.6-1.2,1.7c-0.3,0.1-1.3,0.3-2-0.6l-12-15.7c-0.9-1.1-2.2-1.8-3.7-1.8s-2.8,0.6-3.7,1.8l-12,15.7
	c-0.7,0.9-1.7,0.7-2,0.6c-0.3-0.1-1.2-0.5-1.2-1.7V214.5H741L741,356.8L741,356.8z"/>
<path class="st1" d="M337.5,211.7v139.2c0,2,1.2,3.7,3.1,4.4c1.9,0.6,3.9,0,5.1-1.6l12-15.7c0.4-0.5,0.9-0.7,1.4-0.7
	s1.1,0.3,1.4,0.7l12,15.7c0.9,1.2,2.2,1.8,3.6,1.8c0.5,0,1-0.1,1.5-0.3c1.9-0.6,3.1-2.3,3.1-4.4V211.7L337.5,211.7L337.5,211.7z
	 M378,350.9c0,1.2-0.9,1.6-1.2,1.7c-0.3,0.1-1.3,0.3-2-0.6l-12-15.7c-0.9-1.1-2.2-1.8-3.6-1.8h0c-1.4,0-2.8,0.7-3.6,1.8l-12,15.7
	c-0.7,0.9-1.7,0.7-2,0.6c-0.3-0.1-1.2-0.5-1.2-1.7V214.5H378L378,350.9L378,350.9z"/>
<path class="st1" d="M722.1,207.4c-2.5,0-4.8-0.4-6.9-1.4c-2.1-0.9-4-2.1-5.6-3.8c-1.6-1.6-2.8-3.5-3.7-5.6s-1.3-4.4-1.3-6.9
	s0.4-4.8,1.3-6.9s2.1-4,3.7-5.6s3.5-2.9,5.6-3.8s4.5-1.4,6.9-1.4s4.8,0.4,7,1.3c2.1,0.9,4,2.1,5.6,3.7c1.6,1.6,2.8,3.4,3.7,5.6
	s1.3,4.4,1.3,6.9s-0.4,4.8-1.3,7c-0.9,2.1-2.2,4-3.8,5.6s-3.5,2.9-5.6,3.8C726.9,206.9,724.6,207.4,722.1,207.4L722.1,207.4z
	 M722,205.6c2.2,0,4.3-0.4,6.2-1.2c1.9-0.8,3.6-1.9,5-3.4c1.5-1.4,2.6-3.1,3.4-5.1c0.8-1.9,1.2-4,1.2-6.2s-0.4-4.3-1.2-6.2
	s-1.9-3.6-3.3-5c-1.4-1.4-3.1-2.5-5-3.3c-1.9-0.8-4-1.2-6.3-1.2s-4.3,0.4-6.2,1.2c-1.9,0.8-3.6,1.9-5,3.4s-2.5,3.1-3.3,5
	c-0.8,1.9-1.2,4-1.2,6.2s0.4,4.2,1.2,6.2c0.8,1.9,1.9,3.6,3.3,5c1.4,1.4,3.1,2.6,5,3.4C717.8,205.2,719.8,205.6,722,205.6L722,205.6
	z M715.2,199.9v-20.1h7.8c2.5,0,4.4,0.6,5.8,1.8c1.4,1.2,2.1,2.8,2.1,4.9c0,2.1-0.7,3.8-2.1,5c-1.4,1.2-3.4,1.8-5.9,1.8h-5.2v6.7
	L715.2,199.9L715.2,199.9z M717.8,191h5.1c1.8,0,3.1-0.4,4.1-1.2c1-0.8,1.5-1.9,1.5-3.4s-0.5-2.5-1.5-3.3s-2.3-1.2-4.1-1.2h-5.1V191
	L717.8,191z M728.5,199.9l-5-7.8h2.7l5,7.8H728.5z"/>
</svg>
